<svg xmlns="http://www.w3.org/2000/svg">

    <symbol id="footer__telegram" viewBox="0 0 24 24">
        <path id="Vector" d="M21 5L2 12.5L9 13.5M21 5L18.5 20L9 13.5M21 5L9 13.5M9 13.5V19L12.2488 15.7229" stroke-width="1.5" stroke-linecap="round" stroke-linejoin="round"/>
    </symbol>

    <symbol id="footer__facebook" viewBox="0 0 24 24">
        <path id="Vector" d="M17 2H14C12.6739 2 11.4021 2.52678 10.4645 3.46447C9.52678 4.40215 9 5.67392 9 7V10H6V14H9V22H13V14H16L17 10H13V7C13 6.73478 13.1054 6.48043 13.2929 6.29289C13.4804 6.10536 13.7348 6 14 6H17V2Z" stroke-width="1.5" stroke-linecap="round" stroke-linejoin="round"/>
    </symbol>

    <symbol id="footer__instagram" viewBox="0 0 24 24">
        <path id="Vector" d="M12 16C14.2091 16 16 14.2091 16 12C16 9.79086 14.2091 8 12 8C9.79086 8 8 9.79086 8 12C8 14.2091 9.79086 16 12 16Z"  stroke-width="1.5" stroke-linecap="round" stroke-linejoin="round"/>
        <path id="Vector_2" d="M3 16V8C3 5.23858 5.23858 3 8 3H16C18.7614 3 21 5.23858 21 8V16C21 18.7614 18.7614 21 16 21H8C5.23858 21 3 18.7614 3 16Z"  stroke-width="1.5"/>
        <path id="Vector_3" d="M17.5 6.51L17.51 6.49889"  stroke-width="1.5" stroke-linecap="round" stroke-linejoin="round"/>
    </symbol>

    <symbol id="footer__twitter" viewBox="0 0 24 24">
        <path id="Vector" d="M16.8198 20.7684L3.75317 3.96836C3.44664 3.57425 3.72749 3 4.22678 3H6.70655C6.8917 3 7.06649 3.08548 7.18016 3.23164L20.2468 20.0316C20.5534 20.4258 20.2725 21 19.7732 21H17.2935C17.1083 21 16.9335 20.9145 16.8198 20.7684Z" stroke-width="1.5"/>
        <path id="Vector_2" d="M20 3L4 21"  stroke-width="1.5" stroke-linecap="round"/>
    </symbol>

    <symbol id="top_button" viewBox="0 0 56 56">
        <rect x="0.5" y="0.5" width="55" height="55" rx="27.5" fill="white"/>
        <rect x="0.5" y="0.5" width="55" height="55" rx="27.5" stroke="#FF4646"/>
        <path d="M28 21V35" stroke="#FF4646" stroke-linecap="round" stroke-linejoin="round"/>
        <path d="M34 27L28 21" stroke="#FF4646" stroke-linecap="round" stroke-linejoin="round"/>
        <path d="M22 27L28 21" stroke="#FF4646" stroke-linecap="round" stroke-linejoin="round"/>
    </symbol>
</svg>
